<?xml version="1.0" encoding="utf-8"?>
<!-- Generator: Adobe Illustrator 18.1.1, SVG Export Plug-In . SVG Version: 6.00 Build 0)  -->
<!DOCTYPE svg PUBLIC "-//W3C//DTD SVG 1.1//EN" "http://www.w3.org/Graphics/SVG/1.1/DTD/svg11.dtd">
<svg version="1.1" id="Layer_1" xmlns="http://www.w3.org/2000/svg" xmlns:xlink="http://www.w3.org/1999/xlink" x="0px" y="0px"
	 viewBox="-172 173 136.9 136.9" enable-background="new -172 173 136.9 136.9" xml:space="preserve">
<g>
	<g>
		<g>
			<g>
				<g>
					<circle fill="#D35387" cx="-103.5" cy="241.4" r="63.3"/>
				</g>
			</g>
		</g>
	</g>
	<g>
		<g>
			<path fill="#505251" d="M-95.2,278.9c-2-5.9-3.2-7.4-7-7.4c-3.8,0-5.1,2-7,7.4c-6.5,0.6-11.1,2.1-11.1,3.8
				c0,2.3,8.1,4.2,18.1,4.2s18.1-1.9,18.1-4.2C-84.2,281-88.7,279.5-95.2,278.9z"/>
		</g>
		<g>
			<g>
				<path fill="#3D4040" d="M-56.5,268.1c0,3-2.5,5.5-5.5,5.5c0,0-22.5,3.2-41.5,3.2c-14.5,0-39.3-3.2-39.3-3.2
					c-3,0-5.5-2.5-5.5-5.5V214c0-3,2.5-5.5,5.5-5.5h80.8c3,0,5.5,2.5,5.5,5.5V268.1z"/>
			</g>
		</g>
		<g>
			<rect x="-144.5" y="212.5" fill="#5DC0C1" width="84.1" height="56.9"/>
		</g>
		<g>
			<circle fill="#FDF2F7" cx="-119.3" cy="242.3" r="4.4"/>
		</g>
		<g>
			<circle fill="#FDF2F7" cx="-97.2" cy="234.8" r="4.4"/>
		</g>
		<g>
			<circle fill="#FDF2F7" cx="-75.4" cy="224.9" r="4.4"/>
		</g>
		<g>
			<g>
				<g>
					<path fill="#357180" d="M-60.6,216.4c-3.8-1-6.6,2-10.2,5.8c-0.3,0.3-0.5,0.5-0.8,0.8c0.3,0.6,0.5,1.2,0.5,1.9
						c0,2.4-2,4.4-4.4,4.4c-0.8,0-1.5-0.2-2.2-0.6c-3.8,2.9-8.6,5.3-15.2,5.9c0,0,0,0,0,0c0,0.1,0,0.1,0,0.2c0,2.4-2,4.4-4.4,4.4
						c-1.9,0-3.5-1.2-4.1-3c-2.5,0.6-5,1.2-6.9,1.7l-1.7,0.4c-2.1,0.5-3.9,1-5.6,1.6c0.4,0.7,0.6,1.4,0.6,2.2c0,2.4-2,4.4-4.4,4.4
						c-1.8,0-3.3-1.1-4-2.6c-3,2.4-5.7,5.8-8.7,11.1c-2.1,3.8-4.3,5.7-6.6,5.7c0,0-0.1,0-0.1,0c-2.9-0.1-4.9-3.1-5.7-4.5v13h84.1
						v-53L-60.6,216.4z"/>
				</g>
				<g>
					<g>
						<path fill="#FDF7FA" d="M-144.5,254.5v2c0.8,1.3,2.8,4.4,5.7,4.5c0,0,0.1,0,0.1,0c2.3,0,4.5-1.9,6.6-5.7
							c6.5-11.8,11.8-14.1,22.1-16.8l1.7-0.4c4.4-1.1,11.6-3,15.4-3.4c11.4-1,17.4-7.4,22.2-12.4c3.6-3.8,6.5-6.7,10.3-5.8l0-0.9
							c-4.3-1.1-7.2,2.1-10.9,6c-4.7,5-10.5,11.1-21.6,12.1c-3.8,0.4-11.1,2.3-15.5,3.4l-1.7,0.4c-10.6,2.7-16,5.2-22.7,17.2
							c-2,3.5-4,5.3-5.9,5.2c-3.1-0.1-5.2-4.5-5.2-4.6L-144.5,254.5z"/>
					</g>
					<g>
						<polygon fill="#FDF7FA" points="-144.5,256.4 -144.5,256.4 -144.5,256.4 						"/>
					</g>
				</g>
			</g>
		</g>
	</g>
</g>
</svg>
